<svg xmlns="http://www.w3.org/2000/svg" viewBox="0 0 500 500"><g id="freepik--background-complete--inject-154"><rect x="416.78" y="398.49" width="33.12" height="0.25" style="fill:#ebebeb"></rect><rect x="322.53" y="401.21" width="8.69" height="0.25" style="fill:#ebebeb"></rect><rect x="396.59" y="389.21" width="19.19" height="0.25" style="fill:#ebebeb"></rect><rect x="52.46" y="390.89" width="43.19" height="0.25" style="fill:#ebebeb"></rect><rect x="104.56" y="390.89" width="6.33" height="0.25" style="fill:#ebebeb"></rect><rect x="131.47" y="395.11" width="93.68" height="0.25" style="fill:#ebebeb"></rect><path d="M237,337.8H43.92a5.71,5.71,0,0,1-5.71-5.71V60.66A5.71,5.71,0,0,1,43.92,55H237a5.71,5.71,0,0,1,5.71,5.71V332.09A5.71,5.71,0,0,1,237,337.8ZM43.92,55.2a5.47,5.47,0,0,0-5.46,5.46V332.09a5.47,5.47,0,0,0,5.46,5.46H237a5.47,5.47,0,0,0,5.46-5.46V60.66A5.47,5.47,0,0,0,237,55.2Z" style="fill:#ebebeb"></path><path d="M453.31,337.8H260.21a5.72,5.72,0,0,1-5.71-5.71V60.66A5.72,5.72,0,0,1,260.21,55h193.1A5.71,5.71,0,0,1,459,60.66V332.09A5.71,5.71,0,0,1,453.31,337.8ZM260.21,55.2a5.47,5.47,0,0,0-5.46,5.46V332.09a5.47,5.47,0,0,0,5.46,5.46h193.1a5.47,5.47,0,0,0,5.46-5.46V60.66a5.47,5.47,0,0,0-5.46-5.46Z" style="fill:#ebebeb"></path><rect y="382.4" width="500" height="0.25" style="fill:#ebebeb"></rect><rect x="170.84" y="106.77" width="26.71" height="12.4" rx="3.85" style="fill:#f0f0f0"></rect><rect x="198.61" y="105.7" width="28.83" height="13.38" rx="3.85" style="fill:#f5f5f5"></rect><rect x="74.28" y="86.63" width="57.49" height="85.68" transform="translate(-25.98 25.87) rotate(-12.72)" style="fill:#ebebeb"></rect><rect x="79.67" y="93.59" width="49.55" height="73.86" transform="translate(-26.18 26.21) rotate(-12.72)" style="fill:#f5f5f5"></rect><circle cx="104.86" cy="121.43" r="9.94" transform="translate(-36.08 44.76) rotate(-20.64)" style="fill:#e0e0e0"></circle><polygon points="99.6 149.59 105.5 138.09 110.65 147.09 99.6 149.59" style="fill:#ebebeb"></polygon><path d="M83.18,108.68c-4.29,12.58,3.72,25.19,13.46,32.46,1.5,1.12,3-1.34,1.55-2.45-8.7-6.49-16.09-17.86-12.25-29.14.61-1.77-2.16-2.64-2.76-.87Z" style="fill:#ebebeb"></path><polygon points="116.53 100.44 112.54 106.91 118.73 110.18 122.34 104.25 116.53 100.44" style="fill:#ebebeb"></polygon><polygon points="121.62 81.36 124.41 83.12 143.28 166.7 87.2 179.36 84.42 177.59 140.49 164.94 121.62 81.36" style="fill:#e0e0e0"></polygon><rect x="184.2" y="121.72" width="28.83" height="13.38" rx="3.85" style="fill:#ebebeb"></rect><rect x="404.42" y="267.62" width="26.71" height="12.4" rx="3.85" transform="translate(835.56 547.64) rotate(180)" style="fill:#f0f0f0"></rect><rect x="374.54" y="267.62" width="26.71" height="12.4" rx="3.85" transform="translate(775.8 547.64) rotate(180)" style="fill:#f5f5f5"></rect><rect x="387.9" y="252.77" width="26.71" height="12.4" rx="3.85" transform="translate(802.52 517.94) rotate(180)" style="fill:#ebebeb"></rect><rect x="72.44" y="213.86" width="22.34" height="10.37" rx="3.85" style="fill:#f0f0f0"></rect><rect x="97.43" y="213.86" width="22.34" height="10.37" rx="3.85" style="fill:#f5f5f5"></rect><rect x="86.26" y="226.27" width="22.34" height="10.37" rx="3.85" style="fill:#ebebeb"></rect><rect x="199.14" y="301.07" width="77.52" height="72.23" style="fill:#e6e6e6"></rect><rect x="201.58" y="375.57" width="9.89" height="6.31" style="fill:#e0e0e0"></rect><rect x="276.66" y="301.07" width="157.42" height="71.53" style="fill:#e6e6e6"></rect><rect x="436.2" y="295.75" width="9.89" height="86.14" style="fill:#e6e6e6"></rect><rect x="284.34" y="306.76" width="68.24" height="62.5" style="fill:#f5f5f5"></rect><polygon points="295.86 369.26 314.07 369.26 320.64 306.76 302.43 306.76 295.86 369.26" style="fill:#fafafa"></polygon><polygon points="318.74 369.26 322.37 369.26 328.94 306.76 325.31 306.76 318.74 369.26" style="fill:#fafafa"></polygon><rect x="206.52" y="306.76" width="68.24" height="62.5" style="fill:#f5f5f5"></rect><rect x="362.89" y="306.76" width="68.24" height="62.5" style="fill:#f5f5f5"></rect><path d="M433.68,295.75H196.32v86.13h5.28v-4.82H431v4.82h5.28V295.75ZM201.6,303.54h72.51v29.92H201.6Zm0,65.72V337.92h72.51v31.34Zm151,0H279.39V303.54h73.19Zm78.46,0H357.86V337.92H431Zm0-35.8H357.86V303.54H431Z" style="fill:#f0f0f0"></path><circle cx="238.6" cy="314.17" r="3.17" style="fill:#ebebeb"></circle><path d="M238.6,317.34a3.17,3.17,0,0,1-2.88-1.85,3.23,3.23,0,0,0-.29,1.32,3.17,3.17,0,0,0,6.34,0,3.08,3.08,0,0,0-.3-1.32A3.16,3.16,0,0,1,238.6,317.34Z" style="fill:#e0e0e0"></path><circle cx="238.6" cy="351.01" r="3.17" style="fill:#ebebeb"></circle><path d="M238.6,354.18a3.17,3.17,0,0,1-2.88-1.85,3.23,3.23,0,0,0-.29,1.32,3.17,3.17,0,0,0,6.34,0,3.08,3.08,0,0,0-.3-1.32A3.16,3.16,0,0,1,238.6,354.18Z" style="fill:#e0e0e0"></path><circle cx="398.56" cy="314.17" r="3.17" style="fill:#ebebeb"></circle><path d="M398.56,317.34a3.17,3.17,0,0,1-2.88-1.85,3.23,3.23,0,0,0-.29,1.32,3.17,3.17,0,0,0,6.34,0,3.08,3.08,0,0,0-.3-1.32A3.15,3.15,0,0,1,398.56,317.34Z" style="fill:#e0e0e0"></path><path d="M346.14,339.84a3.17,3.17,0,1,1-3.17-3.17A3.17,3.17,0,0,1,346.14,339.84Z" style="fill:#ebebeb"></path><path d="M343,343a3.17,3.17,0,0,1-2.88-1.85,3.17,3.17,0,1,0,6.05,1.32,3,3,0,0,0-.3-1.32A3.15,3.15,0,0,1,343,343Z" style="fill:#e0e0e0"></path><circle cx="398.56" cy="351.01" r="3.17" style="fill:#ebebeb"></circle><path d="M398.56,354.18a3.17,3.17,0,0,1-2.88-1.85,3.23,3.23,0,0,0-.29,1.32,3.17,3.17,0,1,0,6.34,0,3.08,3.08,0,0,0-.3-1.32A3.15,3.15,0,0,1,398.56,354.18Z" style="fill:#e0e0e0"></path><path d="M98.23,294c0-7.64,9-14.11,21.4-16.32L107.36,263H150.7l-12.27,14.65c12.42,2.21,21.4,8.68,21.4,16.32,0,8.41-10.9,69.92-25.27,83.47l4.54,5.42H119l4.53-5.42C109.13,363.93,98.23,302.42,98.23,294Z" style="fill:#f0f0f0"></path><path d="M145.64,357.08c-5.17-3.75-8.73-11.53-8.73-20.54,0-12.68,7-23,15.7-23a11,11,0,0,1,4.24.87C154.37,327.39,150.46,343.87,145.64,357.08Z" style="fill:#e0e0e0"></path><path d="M107.63,281.7c5.77,3.39,9.84,11.63,9.84,21.28,0,11.79-6.08,21.49-13.9,22.79-3.37-15-5.34-28.18-5.34-31.76C98.23,289.17,101.83,284.81,107.63,281.7Z" style="fill:#e6e6e6"></path><polygon points="365.79 168.6 364.7 178.62 368.98 177.9 365.79 168.6" style="fill:#e0e0e0"></polygon><polygon points="385.76 175.16 381.19 158.72 363.33 161.99 367.9 178.43 385.76 175.16" style="fill:#ebebeb"></polygon><polygon points="382.9 172.98 379.75 161.62 366.19 164.17 369.34 175.53 382.9 172.98" style="fill:#fafafa"></polygon><polygon points="406.52 142.48 396.84 161.93 402.82 162.95 406.52 142.48" style="fill:#e0e0e0"></polygon><path d="M425.15,135.44a73.39,73.39,0,0,0-18-3.55,1.83,1.83,0,0,0-.26-.57c-.52-.71-2.12-.42-2.12-.42s-.78,1.44-.27,2.15c.11.15.33.21.38.38.46,1.39-.95,3.6-1.27,6.22s.47,5.26-.31,6.41c-.31.46-.95.6-1,1.2s.51,1,.69,1.54c.46,1.39-1,3.6-1.27,6.22s.47,5.26-.31,6.41c-.09.14-.31.11-.45.21-.66.48-.27,2.15-.27,2.15s1.46.9,2.12.42c.16-.12.21-.38.39-.44,1.72-.58,5.09,1.58,8.95,2.34s7.6,0,9.1,1.2c.16.13.14.4.26.58.52.7,2.12.41,2.12.41s.78-1.44.27-2.15c-.11-.15-.33-.21-.38-.37-.46-1.4.95-3.61,1.27-6.22s-.47-5.26.31-6.42c.31-.46,1-.59,1-1.2s-.51-1-.69-1.53c-.46-1.4.95-3.61,1.27-6.22s-.47-5.27.31-6.42c.09-.13.31-.1.45-.21.66-.47.27-2.14.27-2.14s-1.46-.9-2.12-.42A1.49,1.49,0,0,0,425.15,135.44Z" style="fill:#e6e6e6"></path><path d="M425.89,135.58a59.94,59.94,0,0,0-8.95-2.34,56.8,56.8,0,0,0-9.1-1.2,1.55,1.55,0,0,0-.26-.57c-.51-.71-2.12-.42-2.12-.42s-.78,1.44-.27,2.15c.11.15.33.21.38.37.46,1.4-.94,3.61-1.27,6.23s.47,5.26-.31,6.41c-.31.46-.95.59-1,1.2s.51,1,.69,1.53c.46,1.4-.94,3.61-1.27,6.22s.47,5.27-.31,6.42c-.09.13-.31.1-.45.21-.66.48-.27,2.15-.27,2.15s1.46.89,2.12.41c.16-.12.21-.38.39-.44,1.72-.57,5.1,1.59,8.95,2.35s7.6,0,9.1,1.2c.16.13.14.39.27.57.51.71,2.12.42,2.12.42s.77-1.44.26-2.15c-.11-.15-.32-.21-.38-.38-.46-1.39.95-3.6,1.27-6.22s-.47-5.26.31-6.41c.31-.46.95-.59,1-1.2s-.5-1-.69-1.54c-.46-1.39.95-3.6,1.27-6.22s-.47-5.26.31-6.41c.09-.14.31-.11.46-.21.66-.48.26-2.15.26-2.15s-1.46-.89-2.12-.42A1.49,1.49,0,0,0,425.89,135.58Z" style="fill:#f0f0f0"></path><polygon points="425.62 137.91 422.22 165.11 404.13 161.58 404.13 161.58 407.53 134.38 407.53 134.38 425.62 137.91" style="fill:#fafafa"></polygon></g><g id="freepik--Shadow--inject-154"><ellipse id="freepik--path--inject-154" cx="245.18" cy="412.39" rx="193.89" ry="11.32" style="fill:#f5f5f5"></ellipse></g><g id="freepik--Plant--inject-154"><path d="M442.05,302.69a5,5,0,0,1-1.64,1,4.36,4.36,0,0,1-1,.29,4.55,4.55,0,0,1-2.73-.35,3.11,3.11,0,0,1-1.39-3.44,3.19,3.19,0,0,1,2.63-2.38l.13,1a2.24,2.24,0,0,0-1.78,1.63,2.19,2.19,0,0,0,.83,2.32,4.05,4.05,0,0,0,4.31-.82,3.35,3.35,0,0,0,.74-3.88,4.06,4.06,0,0,0-2.7-2.54,7.71,7.71,0,0,0-6.26,1.45c-3.91,2.76-5.66,7.22-6.45,10.47a30.32,30.32,0,0,0-.77,6.53c0,.45,0,.91,0,1.36,0,1.74.11,3.46.2,5.16.26,4.61.52,9.36-.84,14.08-.12.43-.26.87-.41,1.31s-.3.82-.47,1.22-.21.55-.33.82c-4.23,9.89-12.88,16.81-22.79,18.26.08-.36.15-.71.23-1.06,9.19-1.51,17.43-8.13,21.5-17.28,0-.1.1-.21.14-.32.14-.3.26-.62.38-.93s.27-.69.39-1.05.15-.41.21-.63a20.23,20.23,0,0,0,.64-2.49c.8-3.9.59-7.8.36-11.87-.13-2.37-.27-4.77-.18-7.2,0-1.08.11-2.17.24-3.26a29.08,29.08,0,0,1,.53-2.88c1.18-4.91,3.55-8.73,6.84-11.06a8.79,8.79,0,0,1,7.12-1.59,4.85,4.85,0,0,1,2.79,2.06,5.14,5.14,0,0,1,.5.93l.06.13A4.38,4.38,0,0,1,442.05,302.69Z" style="fill:#407BFF"></path><path d="M424.12,334.93c-.23-3.83-2.05-8.11-4.06-9.55l.59-.82c2.25,1.62,4.21,6.15,4.46,10.31Z" style="fill:#407BFF"></path><path d="M423.86,338.18l-.93-.37a8.24,8.24,0,0,1,4.88-4.67l.33.95A7.2,7.2,0,0,0,423.86,338.18Z" style="fill:#407BFF"></path><path d="M424.93,313.37a62.78,62.78,0,0,0-2.8-9.62l.94-.34a66,66,0,0,1,2.84,9.77Z" style="fill:#407BFF"></path><rect x="425.06" y="313.39" width="3.38" height="1" transform="translate(-99.3 376.47) rotate(-43.12)" style="fill:#407BFF"></rect><path d="M442.26,306.59a9,9,0,0,1-3.22-3.07l.85-.54a8,8,0,0,0,2.86,2.74Z" style="fill:#407BFF"></path><rect x="441.53" y="295.77" width="3.84" height="1" transform="translate(-72.55 431.08) rotate(-48.39)" style="fill:#407BFF"></rect><path d="M434.86,307.22a2,2,0,0,1,2,1.25c.29.95-.41,1.89-1.11,2.59-1.75,1.73-7.05,6.48-8.84,2.77C425.23,310.31,432.25,307.26,434.86,307.22Z" style="fill:#407BFF"></path><path d="M424.89,303.88A2,2,0,0,1,424,306c-.9.43-1.93-.12-2.72-.72-2-1.47-7.45-6-4-8.34C420.43,294.8,424.47,301.31,424.89,303.88Z" style="fill:#407BFF"></path><path d="M424.25,323.31c-.94-5-5.68-9.79-11.13-11.32-2.55-.71-4.46,2.78-4.57,5.05s1.14,4.7,2.95,6.63a11.52,11.52,0,0,0,7.18,3.8C421.34,327.66,424.7,325.73,424.25,323.31Z" style="fill:#407BFF"></path><path d="M441.12,330.41c-2.59-1.56-5.42-3-8.43-2.94s-6.2,2.08-6.57,5.07a4.62,4.62,0,0,0,3.25,4.95c2.14.67,4.46.11,6.57-.67a8.33,8.33,0,0,0,3.72-2.31C440.6,333.36,442.38,331.18,441.12,330.41Z" style="fill:#407BFF"></path><path d="M443.33,296.57a6.36,6.36,0,0,1,.77-3.49,3.37,3.37,0,0,1,3-1.73,2.32,2.32,0,0,1,2.16,2.42,4.36,4.36,0,0,1-2.43,3.18A3.25,3.25,0,0,1,443.33,296.57Z" style="fill:#407BFF"></path><path d="M449,312.45a6.28,6.28,0,0,1-8-7.78,6.5,6.5,0,0,1,6.11,1.54A6.94,6.94,0,0,1,449,312.45Z" style="fill:#407BFF"></path><g style="opacity:0.30000000000000004"><path d="M434.86,307.22a2,2,0,0,1,2,1.25c.29.95-.41,1.89-1.11,2.59-1.75,1.73-7.05,6.48-8.84,2.77C425.23,310.31,432.25,307.26,434.86,307.22Z" style="fill:#fff"></path><path d="M424.89,303.88A2,2,0,0,1,424,306c-.9.43-1.93-.12-2.72-.72-2-1.47-7.45-6-4-8.34C420.43,294.8,424.47,301.31,424.89,303.88Z" style="fill:#fff"></path><path d="M424.25,323.31c-.94-5-5.68-9.79-11.13-11.32-2.55-.71-4.46,2.78-4.57,5.05s1.14,4.7,2.95,6.63a11.52,11.52,0,0,0,7.18,3.8C421.34,327.66,424.7,325.73,424.25,323.31Z" style="fill:#fff"></path><path d="M441.12,330.41c-2.59-1.56-5.42-3-8.43-2.94s-6.2,2.08-6.57,5.07a4.62,4.62,0,0,0,3.25,4.95c2.14.67,4.46.11,6.57-.67a8.33,8.33,0,0,0,3.72-2.31C440.6,333.36,442.38,331.18,441.12,330.41Z" style="fill:#fff"></path><path d="M443.33,296.57a6.36,6.36,0,0,1,.77-3.49,3.37,3.37,0,0,1,3-1.73,2.32,2.32,0,0,1,2.16,2.42,4.36,4.36,0,0,1-2.43,3.18A3.25,3.25,0,0,1,443.33,296.57Z" style="fill:#fff"></path><path d="M449,312.45a6.28,6.28,0,0,1-8-7.78,6.5,6.5,0,0,1,6.11,1.54A6.94,6.94,0,0,1,449,312.45Z" style="fill:#fff"></path></g><path d="M403.49,388l.95,3.2-8.74-3.79,3-1.49c-2.41-5.62-.32-19.85,1.86-30,.08-.36.16-.71.23-1.06a77.06,77.06,0,0,1,2.65-9.87c1.44-3.32,6.55-4.44,12.35-3.06l-2.56-8.66,18.8,8.15-8.08,4.05c5,3.29,7.65,7.79,6.21,11.11C428.58,360.17,412.28,384.81,403.49,388Z" style="fill:#263238"></path><path d="M409.09,352.32a87.54,87.54,0,0,1-4.38,13.49l-5,12.9c-.36.91,6.42-26.86,7.45-28.3.64-.9,1.64-.57,1.87.65A3.19,3.19,0,0,1,409.09,352.32Z" style="fill:#fff;opacity:0.2"></path><path d="M411.87,348.54c-.25.42-1.28.28-2.32-.32s-1.67-1.42-1.43-1.85,1.28-.28,2.31.32S412.11,348.11,411.87,348.54Z" style="fill:#fff;opacity:0.2"></path></g><g id="freepik--Food--inject-154"><path d="M293.06,212l8.48-2.24c1.1-.29,2-1.1,1.92-1.83l-.68-11.58c-.08-1.39-1.47-2.24-3.11-1.81l-12.49,3.29c-1.63.43-2.42,1.85-1.81,3.1l5.1,10.41C290.8,212,292,212.25,293.06,212Z" style="fill:#407BFF"></path><path d="M283.09,207.28l-.78-2.63c-.64-2.15,1-4.41,3.6-5l1.07-.25,3.1,10.44-1.07.25C286.38,210.68,283.73,209.43,283.09,207.28Zm1.36-3.14.78,2.63c.5,1.39,2.07,1.71,3.66,1.72l-3.19-6.87A1.88,1.88,0,0,0,284.45,204.14Z" style="fill:#407BFF"></path><g style="opacity:0.5"><path d="M299.68,194.5l-12.49,3.29a2.51,2.51,0,0,0-2,2.06c-2.19.83-3.45,2.85-2.87,4.8l.78,2.63c.64,2.15,3.3,3.39,5.92,2.78l.76-.18.71,1.43c.32.66,1.47.94,2.57.64l8.48-2.23c1.12-.29,2-1.1,1.94-1.84l-.69-11.57C302.7,194.92,301.3,194.08,299.68,194.5Zm-14.45,12.27-.78-2.63a1.87,1.87,0,0,1,1.24-2.51l3.2,6.86C287.31,208.48,285.73,208.16,285.23,206.77Z" style="fill:#fff"></path></g><path d="M289.69,199.23a1.54,1.54,0,0,1-1.39-.93c-.22-.54-.22-1.35.31-1.6a6.59,6.59,0,0,1,2.76-.63,4.56,4.56,0,0,0,1.52-.11,1.41,1.41,0,0,0,.81-1.39,1.14,1.14,0,0,1,.38-1.83c.92-.31,1.86.67,2.82.5a1.7,1.7,0,0,0,1.23-1.74,6.12,6.12,0,0,0-.63-2.22,3.84,3.84,0,0,1-.35-2.25,1.47,1.47,0,0,1,1.71-1.16c.67.21,1,1,1.08,1.68.54,3.09-.58,6.2-1.67,9.13A15.46,15.46,0,0,1,289.69,199.23Z" style="fill:#407BFF"></path><path d="M289.69,199.23a1.54,1.54,0,0,1-1.39-.93c-.22-.54-.22-1.35.31-1.6a6.59,6.59,0,0,1,2.76-.63,4.56,4.56,0,0,0,1.52-.11,1.41,1.41,0,0,0,.81-1.39,1.14,1.14,0,0,1,.38-1.83c.92-.31,1.86.67,2.82.5a1.7,1.7,0,0,0,1.23-1.74,6.12,6.12,0,0,0-.63-2.22,3.84,3.84,0,0,1-.35-2.25,1.47,1.47,0,0,1,1.71-1.16c.67.21,1,1,1.08,1.68.54,3.09-.58,6.2-1.67,9.13A15.46,15.46,0,0,1,289.69,199.23Z" style="opacity:0.5"></path><path d="M294.05,187.68a.59.59,0,0,1,.56.64.75.75,0,0,1-.64.62,1.05,1.05,0,0,1-.87-.31,1,1,0,0,1-.22-1.1.59.59,0,0,1,1,0Z" style="fill:#407BFF"></path><g style="opacity:0.5"><path d="M294.05,187.68a.59.59,0,0,1,.56.64.75.75,0,0,1-.64.62,1.05,1.05,0,0,1-.87-.31,1,1,0,0,1-.22-1.1.59.59,0,0,1,1,0Z"></path></g><path d="M290.93,191.66a.69.69,0,1,1-.24-.11Z" style="fill:#407BFF"></path><g style="opacity:0.5"><path d="M290.93,191.66a.69.69,0,1,1-.24-.11Z" style="opacity:0.8"></path></g><path d="M438.46,229.61c.69-1.21,1.09-2.81.29-4s-2.63-1.32-4.13-1.29a4.6,4.6,0,0,0-2.24-6,6.22,6.22,0,0,0-6.62,1.18,9.81,9.81,0,0,0-3,6.29c-.26,2.33.28,4,2.28,5.24,1.44.89,2.14,2.15,3.44,3.09C431.68,236.52,437,232.31,438.46,229.61Z" style="fill:#407BFF"></path><path d="M438.46,229.61c.69-1.21,1.09-2.81.29-4s-2.63-1.32-4.13-1.29a4.6,4.6,0,0,0-2.24-6,6.22,6.22,0,0,0-6.62,1.18,9.81,9.81,0,0,0-3,6.29c-.26,2.33.28,4,2.28,5.24,1.44.89,2.14,2.15,3.44,3.09C431.68,236.52,437,232.31,438.46,229.61Z" style="fill:#fff;opacity:0.30000000000000004"></path><path d="M438.18,221c-.06.31.53.38.86.44-1.08.51-2.79,2.42-3.8,3-.46.29-.7-.32-.69-.44C436.29,222.42,438.28,220.44,438.18,221Z" style="fill:#263238"></path><path d="M439,222.07a10.89,10.89,0,0,1,2.31.53,5.8,5.8,0,0,1-2.19,1.25,2.88,2.88,0,0,1-2.36-.53C435.56,222.36,438.47,222,439,222.07Z" style="fill:#263238"></path><g style="opacity:0.7000000000000001"><path d="M432.07,220.24a.71.71,0,0,0-1.11-.36.69.69,0,1,0,1.15.43Z" style="fill:#fff"></path></g><path d="M424.36,225.85a.52.52,0,0,0,.06.33c.13.18.43.12.57-.05a1.42,1.42,0,0,0,.2-.61,4.41,4.41,0,0,1,2.54-3.24,7.28,7.28,0,0,0,1-.44c.72-.47.76-1.5-.16-1.68-.69-.14-1.63.74-2.07,1.16A6.68,6.68,0,0,0,424.36,225.85Z" style="fill:#fff;opacity:0.7000000000000001"></path></g><g id="freepik--Cat--inject-154"><path d="M344.5,128.34s.11,1.84,2.78,3.08,8.49,3.56,9.76,4.93,4,2.07,5.12,3.21.16,1.21.16,1.21,1.33,1.45-.07,1.68c0,0,0,1-1.07.45s-4.45-2.56-5-3.49c0,0-6.37-1.87-9.5-2.94s-4.23-2.54-9.38-.5S344.5,128.34,344.5,128.34Z" style="fill:#263238"></path><path d="M344.5,128.34s.11,1.84,2.78,3.08,8.49,3.56,9.76,4.93,4,2.07,5.12,3.21.16,1.21.16,1.21,1.33,1.45-.07,1.68c0,0,0,1-1.07.45s-4.45-2.56-5-3.49c0,0-6.37-1.87-9.5-2.94s-4.23-2.54-9.38-.5S344.5,128.34,344.5,128.34Z" style="fill:#fff;opacity:0.30000000000000004"></path><path d="M345.15,129.8a3,3,0,0,1-.65-1.46S332.12,138,337.27,136c4-1.57,5.51-1.06,7.44-.26C342,134,344.3,130.81,345.15,129.8Z" style="opacity:0.2"></path><path d="M362.25,142.45c1.4-.23.07-1.68.07-1.68s.91-.07-.16-1.21-3.85-1.83-5.12-3.21a7.21,7.21,0,0,0-1.45-1c-1,.6-2.23,1.74-1.11,3.61l1.67.49c.58.93,4,2.93,5,3.49S362.25,142.45,362.25,142.45Z" style="fill:#fff;opacity:0.4"></path><path d="M362,142.59s.58.45.39.84a1.21,1.21,0,0,0-.66-.6Z" style="fill:#263238"></path><path d="M362.56,141.51a1.21,1.21,0,0,1,1,1.2,1.11,1.11,0,0,0-1.2-.62Z" style="fill:#263238"></path><path d="M362.37,140.07s1,0,1.08.78a1,1,0,0,0-1.08-.31Z" style="fill:#263238"></path><g style="opacity:0.6000000000000001"><path d="M362,142.59s.58.45.39.84a1.21,1.21,0,0,0-.66-.6Z" style="fill:#fff"></path><path d="M362.56,141.51a1.21,1.21,0,0,1,1,1.2,1.11,1.11,0,0,0-1.2-.62Z" style="fill:#fff"></path><path d="M362.37,140.07s1,0,1.08.78a1,1,0,0,0-1.08-.31Z" style="fill:#fff"></path></g><path d="M361.62,141.57a2.91,2.91,0,0,0-1.57-1.38S361.48,139.76,361.62,141.57Z" style="opacity:0.2"></path><path d="M291.61,118.38a7.19,7.19,0,0,1-.58-.86c0-.13-.09-.26-.13-.39a13.52,13.52,0,0,1,2.33-11.94c2.77-3.32,8.16-1.48,3.33,3.09-2.81,2.66-3.21,5.46-2.51,8a2.45,2.45,0,0,0,.11.71,1.05,1.05,0,0,1-.52-.5l-.27,1.07a.94.94,0,0,1-.62-.65,6.17,6.17,0,0,0,0,1c-.17-.39-.48-.73-.64-1.11C291.91,117.31,291.76,117.84,291.61,118.38Z" style="fill:#263238"></path><path d="M291.61,118.38a7.19,7.19,0,0,1-.58-.86c0-.13-.09-.26-.13-.39a13.52,13.52,0,0,1,2.33-11.94c2.77-3.32,8.16-1.48,3.33,3.09-2.81,2.66-3.21,5.46-2.51,8a2.45,2.45,0,0,0,.11.71,1.05,1.05,0,0,1-.52-.5l-.27,1.07a.94.94,0,0,1-.62-.65,6.17,6.17,0,0,0,0,1c-.17-.39-.48-.73-.64-1.11C291.91,117.31,291.76,117.84,291.61,118.38Z" style="fill:#fff;opacity:0.4"></path><path d="M301.73,129.05l-.19,0h0a1.07,1.07,0,0,1-.25,0,3.13,3.13,0,0,1-.81,0,4.93,4.93,0,0,1-2-.62l-.2-.11c-3.05-1.77-5.9-6.4-7.29-10.88a7.19,7.19,0,0,0,.58.86c.15-.54.3-1.07.46-1.61.16.38.47.72.64,1.11a6.17,6.17,0,0,1,0-1,.94.94,0,0,0,.62.65l.27-1.07a1.05,1.05,0,0,0,.52.5,2.45,2.45,0,0,1-.11-.71,14,14,0,0,0,2.94,5.17,11.37,11.37,0,0,0,9.56,3.84,9.87,9.87,0,0,0,1.29-.17l-1.68,1.07Z" style="fill:#263238"></path><path d="M301.73,129.05l-.19,0h0a1.07,1.07,0,0,1-.25,0,3.13,3.13,0,0,1-.81,0,4.93,4.93,0,0,1-2-.62l-.2-.11c-3.05-1.77-5.9-6.4-7.29-10.88a7.19,7.19,0,0,0,.58.86c.15-.54.3-1.07.46-1.61.16.38.47.72.64,1.11a6.17,6.17,0,0,1,0-1,.94.94,0,0,0,.62.65l.27-1.07a1.05,1.05,0,0,0,.52.5,2.45,2.45,0,0,1-.11-.71,14,14,0,0,0,2.94,5.17,11.37,11.37,0,0,0,9.56,3.84,9.87,9.87,0,0,0,1.29-.17l-1.68,1.07Z" style="fill:#fff;opacity:0.30000000000000004"></path><path d="M297.37,127.69a4.83,4.83,0,0,0,4.36,1.36l6.11-3.92a9.94,9.94,0,0,1-4.21.81,15.49,15.49,0,0,0-3.22,1.86A2.53,2.53,0,0,1,297.37,127.69Z" style="opacity:0.1"></path><path d="M317.22,133.2s1,9-4,11.91-14.91-5.79-16-3.08-1,11.39-3,12.23a5,5,0,0,1-1.71.38,1.49,1.49,0,0,1-1.5-1.82L294.68,136s.23-1,1.42,0C296.1,136,303.52,122.18,317.22,133.2Z" style="fill:#263238"></path><path d="M317.22,133.2s1,9-4,11.91-14.91-5.79-16-3.08-1,11.39-3,12.23a5,5,0,0,1-1.71.38,1.49,1.49,0,0,1-1.5-1.82L294.68,136s.23-1,1.42,0C296.1,136,303.52,122.18,317.22,133.2Z" style="opacity:0.2"></path><path d="M317.22,133.2s1,9-4,11.91-14.91-5.79-16-3.08-1,11.39-3,12.23a5,5,0,0,1-1.71.38,1.49,1.49,0,0,1-1.5-1.82L294.68,136s.23-1,1.42,0C296.1,136,303.52,122.18,317.22,133.2Z" style="fill:#fff;opacity:0.30000000000000004"></path><path d="M349.78,118.53s3.2-.69,3.71-.26-2.18,1.55-2.42,2.09Z" style="fill:#263238"></path><path d="M349.78,118.53s3.2-.69,3.71-.26-2.18,1.55-2.42,2.09Z" style="opacity:0.2"></path><path d="M352.21,125.41a.85.85,0,0,1,.32-.19c.36-.09.64.18.84.45.07.1.22,0,.15-.11a1,1,0,0,0-1-.54,1,1,0,0,0-.49.27c-.08.09.07.2.15.12Z" style="fill:#263238"></path><path d="M351.88,126.06c.61-.09,1,.52,1.19,1,0,.12.22,0,.18-.07-.2-.58-.69-1.24-1.39-1.14-.12,0-.1.21,0,.19Z" style="fill:#263238"></path><path d="M351.59,126.53c.39.07.47.61.47.92,0,.13.19.1.19,0,0-.41-.14-1-.63-1.09a.1.1,0,0,0,0,.19Z" style="fill:#263238"></path><g style="opacity:0.5"><path d="M352.21,125.41a.85.85,0,0,1,.32-.19c.36-.09.64.18.84.45.07.1.22,0,.15-.11a1,1,0,0,0-1-.54,1,1,0,0,0-.49.27c-.08.09.07.2.15.12Z" style="fill:#fff"></path><path d="M351.88,126.06c.61-.09,1,.52,1.19,1,0,.12.22,0,.18-.07-.2-.58-.69-1.24-1.39-1.14-.12,0-.1.21,0,.19Z" style="fill:#fff"></path><path d="M351.59,126.53c.39.07.47.61.47.92,0,.13.19.1.19,0,0-.41-.14-1-.63-1.09a.1.1,0,0,0,0,.19Z" style="fill:#fff"></path></g><path d="M347,127.69c-1.87-.41-2.21,2.22-6.25,6.17s-12.06,3.76-20.44,6.78-11.06-.15-11.06-.15l-8.11-1.14s-4.63-8.89,1.63-12.37,13.6-3.64,19.13-3.76,10.73,1.82,13.16-.39a29.06,29.06,0,0,1,5.67-3.82,8,8,0,0,1,3.87-4.37s3.48-3.3,4.68-2.86-1,5.18-1,5.18,3,2.14,3.31,3.21-1,3,.74,4.77C352.3,124.94,351.63,128.72,347,127.69Z" style="fill:#263238"></path><path d="M347,127.69c-1.87-.41-2.21,2.22-6.25,6.17s-12.06,3.76-20.44,6.78-11.06-.15-11.06-.15l-8.11-1.14s-4.63-8.89,1.63-12.37,13.6-3.64,19.13-3.76,10.73,1.82,13.16-.39a29.06,29.06,0,0,1,5.67-3.82,8,8,0,0,1,3.87-4.37s3.48-3.3,4.68-2.86-1,5.18-1,5.18,3,2.14,3.31,3.21-1,3,.74,4.77C352.3,124.94,351.63,128.72,347,127.69Z" style="fill:#fff;opacity:0.30000000000000004"></path><path d="M320.32,140.64c8.38-3,16.4-2.83,20.44-6.78s4.38-6.58,6.25-6.17c4.62,1,5.29-2.75,5.29-2.75a2.61,2.61,0,0,1-.27-.31c-.4-.27-.83-.47-1.12-.33-.66.32-1.08.92-3.19.33-2.86-.79-5.41,2.94-7,5.65s-.87,3.22-4.79,5c-4.55,2-11.52,1-15.6,1.37-3.45.33-10,1.4-13.59,3.52l2.55.36S311.94,143.65,320.32,140.64Z" style="fill:#fff;opacity:0.2"></path><path d="M352,125.06s-.43-.61-.61-.35S351.41,126.53,352,125.06Z" style="fill:#263238;opacity:0.6000000000000001"></path><path d="M345.8,115.94l1.68.79s2.25-3.83,1.5-4.43S348.71,114.32,345.8,115.94Z" style="opacity:0.2"></path><path d="M350.16,120.45c.33,0,.52-1-.37-1.28S349.83,120.48,350.16,120.45Z" style="fill:#fff;opacity:0.2"></path><path d="M351,121.07c-.15-.12.17-.73.54-.57S351.11,121.2,351,121.07Z" style="fill:#fff;opacity:0.2"></path><g style="opacity:0.6000000000000001"><path d="M349.68,124.33a2.53,2.53,0,0,0-1.89-1.62c-.11,0-.14.15,0,.18a2.37,2.37,0,0,1,1.73,1.51c0,.12.21,0,.18-.07Z" style="fill:#fff"></path><path d="M349.2,124.63a2.79,2.79,0,0,0-2.76-.75c-.12,0-.1.22,0,.19a2.63,2.63,0,0,1,2.59.68c.07.1.23,0,.15-.12Z" style="fill:#fff"></path><path d="M349.05,125.27a2.61,2.61,0,0,0-2,.15c-.12,0,0,.22.06.17a2.51,2.51,0,0,1,1.9-.14c.11,0,.18-.13.07-.18Z" style="fill:#fff"></path></g><path d="M314.52,128.91l-1.72-.18-1.08,1.74-1.23,4.41a25.8,25.8,0,0,0-2.11,5.49l.88.12s1.3,1.53,4.92,1.45C320.32,137.46,314.52,128.91,314.52,128.91Z" style="opacity:0.2"></path><path d="M330.52,138l.5-6.32,1.4-2.83-1.59.27s-7,2.71-6,7.48A7.67,7.67,0,0,0,326,139C327.58,138.6,329.08,138.28,330.52,138Z" style="opacity:0.1"></path><path d="M350.37,121.64c-.11.26-.36.42-.56.33s-.27-.33-.16-.6.37-.42.57-.34A.43.43,0,0,1,350.37,121.64Z" style="fill:#263238"></path><path d="M348.79,120.89a.21.21,0,0,0,.16.08,1.62,1.62,0,0,1,1.32.5.19.19,0,0,0,.27,0,.19.19,0,0,0,0-.22h0a2,2,0,0,0-1.63-.64.17.17,0,0,0-.17.19h0A.15.15,0,0,0,348.79,120.89Z" style="fill:#263238"></path><path d="M334.11,137.12c.74-1.18,4.7-3.65,4.7-3.65l.65-.67-2-.14L333.38,135l-1.09,2.55C332.92,137.43,333.52,137.28,334.11,137.12Z" style="opacity:0.2"></path><path d="M338.19,128.75s3.52,2,1.59,4-8.2,3.53-7.25,6.82a54,54,0,0,1,1.4,8.08s.78,4.49-.93,4c0,0-.92,1.88-2,.7,0,0-1.52.21-1-2,0,0-1.31.17-.19-3.19,0,0,.37-4.51-3.31-9.63S333.34,125.75,338.19,128.75Z" style="fill:#263238"></path><path d="M338.19,128.75s3.52,2,1.59,4-8.2,3.53-7.25,6.82a54,54,0,0,1,1.4,8.08s.78,4.49-.93,4c0,0-.92,1.88-2,.7,0,0-1.52.21-1-2,0,0-1.31.17-.19-3.19,0,0,.37-4.51-3.31-9.63S333.34,125.75,338.19,128.75Z" style="fill:#fff;opacity:0.30000000000000004"></path><path d="M333,151.73c1.71.45.93-4,.93-4a61.12,61.12,0,0,0-.94-6.23,2.28,2.28,0,0,0-1.67-1.15c-1.19,0-1.55,1.89-2.2,2.42a12.85,12.85,0,0,1,.69,4.48c-1.12,3.36.19,3.19.19,3.19-.51,2.24,1,2,1,2C332.08,153.61,333,151.73,333,151.73Z" style="fill:#fff;opacity:0.4"></path><g style="opacity:0.2"><path d="M331.53,150a3.09,3.09,0,0,1-.36,2S332.41,151.45,331.53,150Z"></path><path d="M332.57,149.25a3.13,3.13,0,0,1,.43,2.05A1.41,1.41,0,0,0,332.57,149.25Z"></path></g><path d="M312.51,126s5.71,6.65,3.18,11.84-10.36,3.83-9.73,6.67,5.15,8.1,3.91,9.95a5.12,5.12,0,0,1-1.21,1.27,1.51,1.51,0,0,1-2.27-.68l-6.29-16s-.38-1,1.16-.82C301.26,138.17,295,124.45,312.51,126Z" style="fill:#263238"></path><path d="M312.51,126s5.71,6.65,3.18,11.84-10.36,3.83-9.73,6.67,5.15,8.1,3.91,9.95a5.12,5.12,0,0,1-1.21,1.27,1.51,1.51,0,0,1-2.27-.68l-6.29-16s-.38-1,1.16-.82C301.26,138.17,295,124.45,312.51,126Z" style="fill:#fff;opacity:0.30000000000000004"></path><g style="opacity:0.1"><path d="M302.3,137.09c-.56-1.66-2.41-5.68-.32-8.81-3.59,3.59-.72,9.89-.72,9.89S302.85,138.75,302.3,137.09Z"></path></g></g><g id="freepik--fish-tank--inject-154"><path d="M366,123.3a21.76,21.76,0,0,1-10.49,9.27l-25.31-14.08a21.76,21.76,0,0,1,2.34-13.8,16.68,16.68,0,0,1,14.85-8.82l0,0,18.28,10.17v0A16.68,16.68,0,0,1,366,123.3Z" style="opacity:0.2"></path><path d="M356.46,133.92a.7.7,0,0,1-.95.26l-26.77-14.89a.69.69,0,0,1,.34-1.3.72.72,0,0,1,.34.09l.73.41,25.31,14.08.72.4A.71.71,0,0,1,356.46,133.92Z" style="opacity:0.2"></path><polygon points="366.89 103.75 365.61 106.04 365.6 106.07 347.32 95.9 347.34 95.87 348.61 93.58 357.12 98.32 357.94 98.77 366.89 103.75" style="opacity:0.2"></polygon><path d="M339.14,114.37c4.2.22,6.93,7.65,10.06,10.25s10.12,3.92,10.12,3.92,4.95-3.6,6.91-8.35a14.75,14.75,0,0,0-1.42-13.85l-17.89-10a19.7,19.7,0,0,0-12.09,6.27,16.66,16.66,0,0,0-3.84,11C332.61,114.53,334.94,114.15,339.14,114.37Z" style="fill:#fff;opacity:0.5"></path><path d="M346,100.93s-2.67,3.26-.92,4.24,3.39-3,3.39-3l1.09-.89,1.42.48-6.17,11.07c-2.69-.23-6.61-3.68-6.61-3.68l5.52-9.92Z" style="fill:#407BFF"></path><path d="M346,100.93s-2.67,3.26-.92,4.24,3.39-3,3.39-3l1.09-.89,1.42.48-6.17,11.07c-2.69-.23-6.61-3.68-6.61-3.68l5.52-9.92Z" style="fill:#fff;opacity:0.6000000000000001"></path><path d="M363.4,107.14a6.74,6.74,0,0,0-2.16-.55c-.81,0-1-.19-2-.63s-.62-.83-2.33-1.79-1.41-.12-2.73-.19-1.88-1.11-2.85-1.2-3.88.16-6.08-.76-2.95-4.26-2.95-4.26h0a16.91,16.91,0,0,1,4.64-1.17l17.88,10a10,10,0,0,1,.83,1.37C364.7,107.57,363.76,107.24,363.4,107.14Z" style="fill:#263238"></path><path d="M363.56,113.3a.76.76,0,0,0-.44.91.9.9,0,0,0,.37.49l.12.06s1.33-1.05.07-2h0C363.72,112.86,363.83,113.22,363.56,113.3Z" style="fill:#407BFF"></path><path d="M363.56,113.3a.76.76,0,0,0-.44.91.9.9,0,0,0,.37.49,1.32,1.32,0,0,0,.25-1.85l-.05-.06C363.72,112.86,363.83,113.22,363.56,113.3Z" style="fill:#fff;isolation:isolate;opacity:0.2"></path><path d="M355.58,113.71s.38-.18,1,.32,2.05.08,2.05.08a4,4,0,0,0,1.43,3.7c.15.12.29.23.45.34a2.73,2.73,0,0,0,1.68.51s.17.22.31.08-.47-.59-.47-.59c.59,0,.78.47,1.11.35s0-.23,0-.23a2.57,2.57,0,0,0,.89-1.26,3,3,0,0,0,0-1.91,2.77,2.77,0,0,0-1-1.25,5.19,5.19,0,0,0-3.4-.67s.87-1,.45-1.88a2.71,2.71,0,0,1-.31-1.53h0l-.15,0a1,1,0,0,0-.66.65c-.2.6-1.08,1.26-.9,1.92a1.6,1.6,0,0,0-.89.13c-.29.2-.59.6-.9.6s-.56.37-.67.54Z" style="fill:#407BFF"></path><path d="M355.63,113.65a3.53,3.53,0,0,1,1.76.28c.94.27,1.09-.24,1.09-.24a1.15,1.15,0,0,1-.76-.35,1.83,1.83,0,0,0,1,.08,1.73,1.73,0,0,1-.37-.66l.42.36a.91.91,0,0,0-.06-.49.83.83,0,0,1,.3.63,3,3,0,0,0,.41-.75,3.43,3.43,0,0,0,.09-2c0-.47.05-.65.15-.72a1,1,0,0,0-.67.65c-.19.59-1.07,1.26-.9,1.92a1.56,1.56,0,0,0-.88.13c-.3.2-.6.6-.91.6S355.74,113.48,355.63,113.65Z" style="fill:#fff;isolation:isolate;opacity:0.2"></path><path d="M360.54,118.14a2.73,2.73,0,0,0,1.68.51s.17.23.31.08-.47-.58-.47-.58c.59-.05.78.47,1.11.35s0-.23,0-.23a2.55,2.55,0,0,0,.88-1.26,2.91,2.91,0,0,0,0-1.91,3.1,3.1,0,0,0-2.38.52A2.72,2.72,0,0,0,360.54,118.14Z" style="fill:#fff;isolation:isolate;opacity:0.2"></path><path d="M361.88,117a.27.27,0,0,0,0,.39.28.28,0,0,0,.4,0l0-.06a.28.28,0,0,0-.13-.38A.27.27,0,0,0,361.88,117Z" style="fill:#263238"></path><path d="M357.59,116s-.11.26.62.63a2.63,2.63,0,0,0,1.43.28l-.14-.28a1.18,1.18,0,0,0-.37-.46,2.19,2.19,0,0,0-1.13-.09A.47.47,0,0,1,357.59,116Z" style="fill:#407BFF"></path><path d="M357.59,116c.29.71,1.87.75,1.9.71l0-.08a1.3,1.3,0,0,0-.38-.46,2.17,2.17,0,0,0-1.13-.1A.43.43,0,0,1,357.59,116Z" style="fill:#fff;isolation:isolate;opacity:0.2"></path><path d="M362.7,114.55a.8.8,0,0,0-.76-.13.49.49,0,0,0-.27.31,1,1,0,0,0-.05.41l.08,0a1.09,1.09,0,0,0-.53-.1.69.69,0,0,0-.49.23,1.21,1.21,0,0,0-.22.49.57.57,0,0,0,.14.52l0-.09a.86.86,0,0,0-.67.52.61.61,0,0,0,0,.42.7.7,0,0,0,.28.31.62.62,0,0,1-.24-.71.78.78,0,0,1,.61-.43l.11,0-.08-.08a.49.49,0,0,1-.09-.42,1,1,0,0,1,.2-.43.58.58,0,0,1,.41-.2,1.27,1.27,0,0,1,.47.09l.08,0v-.09a.61.61,0,0,1,.25-.64A.79.79,0,0,1,362.7,114.55Z" style="fill:#fff;isolation:isolate;opacity:0.2"></path><path d="M362.42,113.6a1.25,1.25,0,0,0-.69-.11c-.14,0-.18.21-.15.32a.84.84,0,0,0,.16.33l.05-.07a1.76,1.76,0,0,0-.44-.15.72.72,0,0,0-.48,0,.51.51,0,0,0-.28.4,1,1,0,0,0,0,.49l.09-.08a1,1,0,0,0-.5-.14.57.57,0,0,0-.46.27.54.54,0,0,0-.06.52.94.94,0,0,0,.34.4l0-.07a1.63,1.63,0,0,0-.54,0,.22.22,0,0,0-.14.23.72.72,0,0,0,.07.25.53.53,0,0,1,0-.25.16.16,0,0,1,.11-.19,1.8,1.8,0,0,1,.52,0l.13,0-.11-.09a.82.82,0,0,1-.29-.37.48.48,0,0,1,.06-.42.47.47,0,0,1,.37-.22.84.84,0,0,1,.44.13l.14.08-.07-.14a1,1,0,0,1,0-.42.38.38,0,0,1,.21-.32.64.64,0,0,1,.41,0,1.87,1.87,0,0,1,.42.13l.15.06-.09-.13a.86.86,0,0,1-.14-.29.19.19,0,0,1,.09-.26A1.38,1.38,0,0,1,362.42,113.6Z" style="fill:#fff;isolation:isolate;opacity:0.2"></path><path d="M360.9,113.3l-.35,0a.74.74,0,0,0-.36.06.31.31,0,0,0-.14.35,1.12,1.12,0,0,0,.12.35l.07-.08a2.32,2.32,0,0,0-.37-.13.59.59,0,0,0-.41,0,.43.43,0,0,0-.09.41c0,.13.07.26.11.38l.09-.08a.93.93,0,0,0-.44-.11.46.46,0,0,0-.23.06.24.24,0,0,0-.14.19.8.8,0,0,0,.09.43,2.71,2.71,0,0,0,.21.37,2.64,2.64,0,0,1-.18-.38.91.91,0,0,1-.06-.4c0-.12.18-.16.3-.17a.81.81,0,0,1,.37.12l.15.08-.07-.15a1.4,1.4,0,0,1-.1-.35c0-.11,0-.24,0-.29a.41.41,0,0,1,.31,0,1.35,1.35,0,0,1,.34.11l.15.06-.07-.14a1.68,1.68,0,0,1-.15-.3.24.24,0,0,1,.09-.27A1.33,1.33,0,0,1,360.9,113.3Z" style="fill:#fff;isolation:isolate;opacity:0.2"></path></g><g id="freepik--Device--inject-154"><path d="M231.74,132.08c.12-.22,3.2-5.21,8.37-5.37,4-.13,7.9,2.6,11.72,8.1C254.89,139.23,256,143,255,146c-1.15,3.61-4.76,4.93-6.12,5.43l-.16.06-.77-2.08.17-.07c1.18-.43,3.94-1.44,4.76-4,.74-2.32-.24-5.44-2.89-9.26-3.35-4.84-6.66-7.25-9.82-7.15-4,.12-6.52,4.25-6.54,4.29Z" style="fill:#263238"></path><path d="M243.21,151.8c-2.55,1.94-3.92,4.43-3.06,5.56s3.62.47,6.17-1.47,3.92-4.43,3.06-5.56S245.76,149.86,243.21,151.8Z" style="fill:#263238"></path><path d="M243.21,151.8c-2.55,1.94-3.92,4.43-3.06,5.56s3.62.47,6.17-1.47,3.92-4.43,3.06-5.56S245.76,149.86,243.21,151.8Z" style="fill:#fff;opacity:0.2"></path><path d="M241.49,149.54c-3.33,2.53-5.11,5.78-4,7.26s4.73.61,8.05-1.92,5.12-5.78,4-7.26S244.82,147,241.49,149.54Z" style="fill:#263238"></path><path d="M233.05,138.45c-3.33,2.54-6.94,3.39-8.06,1.92s.67-4.72,4-7.25,6.94-3.4,8.06-1.92S236.37,135.92,233.05,138.45Z" style="fill:#263238"></path><path d="M231.33,136.2c-2.55,1.94-5.31,2.6-6.17,1.47s.51-3.62,3.06-5.56,5.31-2.6,6.17-1.47S233.88,134.26,231.33,136.2Z" style="fill:#263238"></path><path d="M231.33,136.2c-2.55,1.94-5.31,2.6-6.17,1.47s.51-3.62,3.06-5.56,5.31-2.6,6.17-1.47S233.88,134.26,231.33,136.2Z" style="fill:#fff;opacity:0.2"></path><path d="M243.72,153.14c-1.42,1.07-2.84,1.59-3.17,1.15s.54-1.67,2-2.74,2.83-1.6,3.17-1.16S245.13,152.06,243.72,153.14Z" style="fill:#fff;opacity:0.2"></path><path d="M357.59,212.85c-5.2,0-9.9-1.48-12.83-4.16-5.56-5.08-5.75-11-5.92-16.65-.22-6.92-.43-13.45-9.57-18.94-17-10.18-33.54-.91-51.09,8.9-15.5,8.66-31.51,17.61-49.05,13.94-2.22-.47-10.54-4.56-11.95-12.31-1.57-8.56,5.67-18,21.51-28.12l.54.85c-15.25,9.71-22.53,19.08-21.07,27.09,1.3,7.15,9.18,11.09,11.18,11.51,17.17,3.6,33-5.26,48.35-13.83,17.81-10,34.64-19.36,52.1-8.89,9.6,5.77,9.83,12.89,10,19.77.19,5.73.36,11.14,5.6,15.94,6.07,5.54,20.13,5.66,29.89-2.47l.64.77A29,29,0,0,1,357.59,212.85Z" style="fill:#263238"></path><path d="M370.53,211.21a1.17,1.17,0,0,0,1.46-1.82l-24.74-19.88a1.17,1.17,0,0,0-1.64.18,1.16,1.16,0,0,0,.18,1.63Z" style="fill:#263238"></path><path d="M370.53,211.21a1.17,1.17,0,0,0,1.46-1.82l-24.74-19.88a1.17,1.17,0,0,0-1.64.18,1.16,1.16,0,0,0,.18,1.63Z" style="fill:#fff;opacity:0.2"></path><path d="M369.69,208l22.12-20.79a2.39,2.39,0,0,1,3-.12l3.15,2.53-21.34,26.55-6.89-5.53A1.7,1.7,0,0,1,369.69,208Z" style="fill:#263238"></path><path d="M371.14,211.68l28,22.48a2.4,2.4,0,0,0,3-.13l22.12-20.78a1.7,1.7,0,0,0-.08-2.64l-28-22.48a2.39,2.39,0,0,0-3,.13L371.05,209A1.7,1.7,0,0,0,371.14,211.68Z" style="fill:#263238"></path><path d="M371.14,211.68l28,22.48a2.4,2.4,0,0,0,3-.13l22.12-20.78a1.7,1.7,0,0,0-.08-2.64l-28-22.48a2.39,2.39,0,0,0-3,.13L371.05,209A1.7,1.7,0,0,0,371.14,211.68Z" style="fill:#fff;opacity:0.6000000000000001"></path><path d="M398.32,209.9a1.55,1.55,0,0,0,.08,2.41,2.19,2.19,0,0,0,2.78-.11,1.57,1.57,0,0,0-.08-2.42A2.19,2.19,0,0,0,398.32,209.9Z" style="fill:#fff;opacity:0.7000000000000001"></path></g><g id="freepik--Chair--inject-154"><path d="M164.92,357l-.85.11-25.28-29.43a1.79,1.79,0,0,0-2.5-.34l-3.58,3.08a1.79,1.79,0,0,0,0,2.52L158,362.34l-.24.83a27.59,27.59,0,0,1-8.52,13.44h0a4.43,4.43,0,0,0-.09,6.25h0l36.59-31.43h0a4.44,4.44,0,0,0-6.2-.85h0A27.71,27.71,0,0,1,164.92,357Z" style="fill:#263238"></path><path d="M110.69,330.52,139,306.23l-40.1-34.84c-10.12-8.79-25.9-9.19-35.55-.9L56,276.78c-9.65,8.3-9.67,22.26,0,31.47L77.5,328.83Z" style="fill:#407BFF"></path><path d="M110.69,330.52,139,306.23l-40.1-34.84c-10.12-8.79-25.9-9.19-35.55-.9L56,276.78c-9.65,8.3-9.67,22.26,0,31.47L77.5,328.83Z" style="fill:#fff;opacity:0.1"></path><path d="M147.3,299.07l-44.81,38.5L64.3,301.09c-9.64-9.21-9.62-23.17,0-31.47l7.33-6.29c9.65-8.3,25.43-7.9,35.55.9Z" style="fill:#407BFF"></path><path d="M147.3,299.07l-44.81,38.5L64.3,301.09c-9.64-9.21-9.62-23.17,0-31.47l7.33-6.29c9.65-8.3,25.43-7.9,35.55.9Z" style="fill:#fff;opacity:0.30000000000000004"></path><path d="M143.83,263.52c.58.69,1.15,1.39,1.69,2.12.33.45,1.59,2.53.69.95a46.85,46.85,0,0,1,2.68,5.23c.34.8.63,1.6.91,2.41-.58-1.66.14.58.27,1.1a43.8,43.8,0,0,1,.91,5.32c0,.25.15,1.61.07.56s0,.3,0,.56c0,.84,0,1.68-.05,2.53s-.13,1.89-.25,2.83c0,.42-.11.84-.18,1.25,0,.22-.4,1.95-.14.86.21-.89-.4,1.46-.49,1.77-.23.81-.5,1.62-.79,2.41s-.62,1.58-1,2.37c-.1.23-.69,1.47-.22.52s-.33.58-.43.77a37.92,37.92,0,0,1-2.86,4.35c-.33.43-1.91,2.27-.68.93-.75.82-1.54,1.62-2.36,2.38a44.19,44.19,0,0,1-4.22,3.37c-.34.24-1.33.71.13-.08-.38.2-.75.45-1.13.67q-1.27.72-2.61,1.35c-.79.36-1.58.7-2.38,1-.4.15-.82.27-1.21.44-1.07.46,1.27-.28.14-.05-1.77.38-3.49.89-5.29,1.14-.84.12-1.68.17-2.52.28,1.78-.22-.57,0-1.12,0a39.65,39.65,0,0,1-5.66-.47l-1.25-.23c1.89.35-.19-.08-.46-.15-.92-.24-1.84-.52-2.74-.83s-1.79-.66-2.67-1l-1.16-.53c1.75.76-.16-.11-.43-.26a37.82,37.82,0,0,1-4.86-3.26c-.34-.27-.67-.57-1-.83,1.55,1.17-.1-.11-.36-.36-.81-.79-1.57-1.62-2.31-2.46-2.76-3.16-8.13-3.85-11.3-.86a8.16,8.16,0,0,0-.86,11.3,46.56,46.56,0,0,0,51.31,12.9c17.46-6.42,29.8-24.53,29.36-43.13A47,47,0,0,0,156,253.08c-2.7-3.2-8.16-3.8-11.3-.86a8.16,8.16,0,0,0-.85,11.3Z" style="fill:#407BFF"></path><path d="M151.1,317.77c10-8.7,16.25-21.78,15.93-35.11A47,47,0,0,0,156,253.08c-2.7-3.2-8.16-3.8-11.3-.86l-18.91,16.25a8.16,8.16,0,0,0-.85,11.3c.58.69,1.15,1.39,1.69,2.11.3.41,1.34,2.11.91,1.33a44.27,44.27,0,0,1,2.46,4.86c.26.61.5,1.24.72,1.87-.15-.39.35,1.21.46,1.63a43.63,43.63,0,0,1,.91,5.33c0,.07,0,.25,0,.43s0,.57,0,.68c0,.85,0,1.69-.05,2.53s-.13,1.89-.25,2.83q-.07.63-.18,1.26l-.19,1c-.14.51-.38,1.44-.44,1.62-.23.82-.5,1.62-.79,2.42s-.52,1.34-.8,2c-1.45.34-2.88.72-4.37.93-.84.12-1.68.17-2.52.28,1.78-.22-.57,0-1.12,0a39.65,39.65,0,0,1-5.66-.47l-.52-.1c.3.05-1-.22-1.19-.28-.92-.24-1.84-.52-2.74-.83s-1.79-.66-2.67-1l-1.16-.53c1.75.76-.16-.11-.43-.26a37.82,37.82,0,0,1-4.86-3.26c-.34-.27-.67-.57-1-.83,1.55,1.17-.1-.11-.36-.36-.81-.79-1.57-1.62-2.31-2.46-2.76-3.16-8.13-3.85-11.3-.86L68.31,317.83a8.16,8.16,0,0,0-.86,11.3A46.57,46.57,0,0,0,118.76,342a43.46,43.46,0,0,0,13.83-8.37Z" style="fill:#407BFF"></path><path d="M151.1,317.77c10-8.7,16.25-21.78,15.93-35.11A47,47,0,0,0,156,253.08c-2.7-3.2-8.16-3.8-11.3-.86l-18.91,16.25a8.16,8.16,0,0,0-.85,11.3c.58.69,1.15,1.39,1.69,2.11.3.41,1.34,2.11.91,1.33a44.27,44.27,0,0,1,2.46,4.86c.26.61.5,1.24.72,1.87-.15-.39.35,1.21.46,1.63a43.63,43.63,0,0,1,.91,5.33c0,.07,0,.25,0,.43s0,.57,0,.68c0,.85,0,1.69-.05,2.53s-.13,1.89-.25,2.83q-.07.63-.18,1.26l-.19,1c-.14.51-.38,1.44-.44,1.62-.23.82-.5,1.62-.79,2.42s-.52,1.34-.8,2c-1.45.34-2.88.72-4.37.93-.84.12-1.68.17-2.52.28,1.78-.22-.57,0-1.12,0a39.65,39.65,0,0,1-5.66-.47l-.52-.1c.3.05-1-.22-1.19-.28-.92-.24-1.84-.52-2.74-.83s-1.79-.66-2.67-1l-1.16-.53c1.75.76-.16-.11-.43-.26a37.82,37.82,0,0,1-4.86-3.26c-.34-.27-.67-.57-1-.83,1.55,1.17-.1-.11-.36-.36-.81-.79-1.57-1.62-2.31-2.46-2.76-3.16-8.13-3.85-11.3-.86L68.31,317.83a8.16,8.16,0,0,0-.86,11.3A46.57,46.57,0,0,0,118.76,342a43.46,43.46,0,0,0,13.83-8.37Z" style="fill:#fff;opacity:0.4"></path><g style="opacity:0.2"><path d="M143.83,263.52c.58.69,1.15,1.39,1.69,2.12.33.45,1.59,2.53.69.95a46.85,46.85,0,0,1,2.68,5.23c.34.8.63,1.6.91,2.41-.58-1.66.14.58.27,1.1a43.8,43.8,0,0,1,.91,5.32c0,.25.15,1.61.07.56s0,.3,0,.56c0,.84,0,1.68-.05,2.53s-.13,1.89-.25,2.83c0,.42-.11.84-.18,1.25,0,.22-.4,1.95-.14.86.21-.89-.4,1.46-.49,1.77-.23.81-.5,1.62-.79,2.41s-.62,1.58-1,2.37c-.1.23-.69,1.47-.22.52s-.33.58-.43.77a37.92,37.92,0,0,1-2.86,4.35c-.33.43-1.91,2.27-.68.93-.75.82-1.54,1.62-2.36,2.38a44.19,44.19,0,0,1-4.22,3.37c-.34.24-1.33.71.13-.08-.38.2-.75.45-1.13.67q-1.27.72-2.61,1.35c-.79.36-1.58.7-2.38,1-.4.15-.82.27-1.21.44-1.07.46,1.27-.28.14-.05-1.77.38-3.49.89-5.29,1.14-.84.12-1.68.17-2.52.28,1.78-.22-.57,0-1.12,0a39.65,39.65,0,0,1-5.66-.47l-1.25-.23c1.89.35-.19-.08-.46-.15-.92-.24-1.84-.52-2.74-.83s-1.79-.66-2.67-1l-1.16-.53c1.75.76-.16-.11-.43-.26a37.82,37.82,0,0,1-4.86-3.26c-.34-.27-.67-.57-1-.83,1.55,1.17-.1-.11-.36-.36-.81-.79-1.57-1.62-2.31-2.46-2.76-3.16-8.13-3.85-11.3-.86a8.16,8.16,0,0,0-.86,11.3,46.56,46.56,0,0,0,51.31,12.9c17.46-6.42,29.8-24.53,29.36-43.13A47,47,0,0,0,156,253.08c-2.7-3.2-8.16-3.8-11.3-.86a8.16,8.16,0,0,0-.85,11.3Z" style="fill:#fff"></path></g></g><g id="freepik--Character--inject-154"><path d="M284.54,266l-5.89,7.14S243,253.6,236.84,243.78c-14.13,7.59-50.29,24-58.79-1.86l23.76-10.06s26.73-8.44,38.9-5.22a12.8,12.8,0,0,1,1.55.52c.89.51,1.85,1.13,2.86,1.85C257,237.4,276.73,258.72,284.54,266Z" style="fill:#263238"></path><path d="M245.12,229c-1-.72-2-1.34-2.86-1.85A7.54,7.54,0,0,1,245.12,229Z" style="fill:#263238"></path><path d="M242.26,227.16a12.8,12.8,0,0,0-1.55-.52l.09-.25C241.26,226.61,241.75,226.86,242.26,227.16Z" style="fill:#263238"></path><polygon points="278.75 271.25 287.81 277.88 290.92 272.85 283.02 266.39 278.75 271.25" style="fill:#ffc2bc"></polygon><path d="M292.61,272.5a.19.19,0,0,1-.19,0,.18.18,0,0,1-.05-.18c0-.12,1-2.69,2.08-3.18a.88.88,0,0,1,.64,0,.61.61,0,0,1,.46.53c0,.46-.56,1.14-1.21,1.69A12.93,12.93,0,0,1,292.61,272.5Zm.26-.51c1.08-.69,2.39-1.8,2.35-2.35,0-.07,0-.17-.25-.25a.45.45,0,0,0-.39,0,1.45,1.45,0,0,0-.26.17A7.56,7.56,0,0,0,292.87,272Z" style="fill:#407BFF"></path><path d="M292.53,272.54a.16.16,0,0,1-.15-.06,4.72,4.72,0,0,1-.87-2.71A1.19,1.19,0,0,1,292,269c.37-.25.63-.17.76,0,.6.5.29,2.69-.11,3.49a.08.08,0,0,1-.05.05A.15.15,0,0,1,292.53,272.54Zm-.39-3.26a.82.82,0,0,0-.3.52,3.79,3.79,0,0,0,.64,2.19c.33-.93.42-2.51.09-2.84,0,0-.13-.1-.37.07l-.06.06Z" style="fill:#407BFF"></path><path d="M291.46,272.21,285.73,277a.6.6,0,0,0-.15.74l2.84,5.52a1,1,0,0,0,1.35.44l.17-.11c2-1.76,3.78-3.4,6.36-5.54,3-2.53,2.57-1.53,6.18-4.45,2.17-1.76.53-4.53-.48-3.89-4.61,2.95-6.1,2.05-8.95,1.9A2.33,2.33,0,0,0,291.46,272.21Z" style="fill:#263238"></path><path d="M291.46,272.21,285.73,277a.6.6,0,0,0-.15.74l2.84,5.52a1,1,0,0,0,1.35.44l.17-.11c2-1.76,3.78-3.4,6.36-5.54,3-2.53,2.57-1.53,6.18-4.45,2.17-1.76.53-4.53-.48-3.89-4.61,2.95-6.1,2.05-8.95,1.9A2.33,2.33,0,0,0,291.46,272.21Z" style="opacity:0.1"></path><polygon points="280.18 272.3 283.57 274.78 287.27 269.86 284.65 267.72 280.18 272.3" style="opacity:0.2"></polygon><path d="M284.54,266l-5.89,7.14S243,253.6,236.84,243.78c-14.13,7.59-50.29,24-58.79-1.86l23.76-10.06s26.73-8.44,38.9-5.22a12.8,12.8,0,0,1,1.55.52c.89.51,1.85,1.13,2.86,1.85C257,237.4,276.73,258.72,284.54,266Z" style="opacity:0.2"></path><path d="M185.54,231.35l7.46,4.09,2.74,22.27s-29-1.42-32.48-.38L157.55,245S173.85,232.18,185.54,231.35Z" style="fill:#263238"></path><path d="M163.36,244.27c4.1,0,22.64-3.36,47.62,3.95,12.1,3.54,12.69,13.31,13.83,37.34.7,14.75,2.25,36.35,2.25,36.35l-8.86,1.54s-11.55-28.81-14.12-53.27C204.08,270.18,155.15,277.63,163.36,244.27Z" style="fill:#263238"></path><path d="M163.36,244.27c4.1,0,22.64-3.36,47.62,3.95,12.1,3.54,12.69,13.31,13.83,37.34.7,14.75,2.25,36.35,2.25,36.35l-8.86,1.54s-11.55-28.81-14.12-53.27C204.08,270.18,155.15,277.63,163.36,244.27Z" style="fill:#263238"></path><polygon points="218.71 321.58 222.58 332.85 228.35 330.36 225.39 319.95 218.71 321.58" style="fill:#ffc2bc"></polygon><path d="M230.33,330.87a.18.18,0,0,1-.16-.11.15.15,0,0,1,.05-.19c.1-.09,2.34-1.95,3.59-1.83a.91.91,0,0,1,.6.3.64.64,0,0,1,.14.74c-.22.43-1.11.75-2,.91A12.71,12.71,0,0,1,230.33,330.87Zm.51-.32c1.35-.07,3.15-.4,3.4-.92,0-.07.07-.18-.1-.37a.44.44,0,0,0-.37-.17.92.92,0,0,0-.33,0A7.75,7.75,0,0,0,230.84,330.55Z" style="fill:#407BFF"></path><path d="M230.24,330.88a.19.19,0,0,1-.11-.14c0-.09-.15-2.05.63-3a1.28,1.28,0,0,1,.89-.46c.47,0,.66.18.71.37.3.78-1.15,2.63-1.94,3.15a.06.06,0,0,1-.07,0A.14.14,0,0,1,230.24,330.88Zm1.35-3.22a.89.89,0,0,0-.54.32,4,4,0,0,0-.57,2.36c.79-.68,1.71-2.09,1.58-2.57,0,0-.06-.16-.37-.13l-.1,0Z" style="fill:#407BFF"></path><path d="M229.42,330l-7.79,1.37a.63.63,0,0,0-.53.6l-.3,6.59a1.06,1.06,0,0,0,1,1.11H222c2.8-.54,5.28-1.14,8.78-1.75,4.13-.72,3.16,0,8-.83,2.93-.47,2.89-3.89,1.62-3.84-5.81.29-6.7-1.32-9.24-3A2.57,2.57,0,0,0,229.42,330Z" style="fill:#263238"></path><polygon points="219.32 323.36 220.77 327.58 226.98 325.55 226 322.09 219.32 323.36" style="opacity:0.2"></polygon><polygon points="215.17 322.35 216.89 326.58 228.8 323.27 228.17 318.55 215.17 322.35" style="fill:#407BFF"></polygon><path d="M115.73,172c-3.4-1.76-10.21-5.6-14.94-6-9.69-.81-10.12-16.89-6.16-17.61a8.62,8.62,0,0,0-6.47,3.93C86.77,154.58,85,158.59,86,161c-2.67-1.72-2.58-7.79-1.33-11.43-3.27,2.75-8.67,6.54-6.25,14.45a11.18,11.18,0,0,0,9.37,7.64,11.54,11.54,0,0,1-7.39-.79,14.87,14.87,0,0,0,12.71,9.64c2.73.18,5.45-.41,8.18-.65s5.65-.06,7.93,1.46a16.47,16.47,0,0,1,3.46,3.56,12.27,12.27,0,0,0,3.64,3.36,4.46,4.46,0,0,0,4.72-.09C125.48,184.69,118.38,173.41,115.73,172Z" style="fill:#263238"></path><path d="M115.73,172c-3.4-1.76-10.21-5.6-14.94-6-9.69-.81-10.12-16.89-6.16-17.61a8.62,8.62,0,0,0-6.47,3.93C86.77,154.58,85,158.59,86,161c-2.67-1.72-2.58-7.79-1.33-11.43-3.27,2.75-8.67,6.54-6.25,14.45a11.18,11.18,0,0,0,9.37,7.64,11.54,11.54,0,0,1-7.39-.79,14.87,14.87,0,0,0,12.71,9.64c2.73.18,5.45-.41,8.18-.65s5.65-.06,7.93,1.46a16.47,16.47,0,0,1,3.46,3.56,12.27,12.27,0,0,0,3.64,3.36,4.46,4.46,0,0,0,4.72-.09C125.48,184.69,118.38,173.41,115.73,172Z" style="opacity:0.2"></path><g id="freepik--group--inject-154"><path d="M200.32,172.9c.47-.09,3.89,3.43,3.89,3.43a33.19,33.19,0,0,0,4.44-4.67l-5.39-6Z" style="fill:#ffc2bc"></path><path d="M158.9,192.55c5.2-1.77,15.68-3.8,22.22-5.59,3-.83,19.8-15.06,19.8-15.06l3.29,4.43s-16,14.89-18.87,16.53c-8.69,4.95-26.82,9.48-29.16,8.28C152.7,199.34,154.9,193.92,158.9,192.55Z" style="fill:#ffc2bc"></path><path d="M171.89,204.17a5.35,5.35,0,0,1,.79,1.05c1.41,2.47,2.33,10.87,8.69,18.43v0l1.82,1.57c1.5,1.29,2.35,4.13,2.34,6.11l-26.88,16c-2-.09-3-1.24-3.58-3.15A51.24,51.24,0,0,0,150,232.66a126.05,126.05,0,0,0-18.36-23.13v-.06a81.66,81.66,0,0,1,9.06-7.55,87.38,87.38,0,0,1,10.63-6.68c2.35-1.16,4.65-2.09,5.94-2.59a1.88,1.88,0,0,1,1.88.3C161.54,194.94,168.4,200.71,171.89,204.17Z" style="fill:#407BFF"></path><path d="M135.11,189c2.73,3.1,7.13,9.09,6,12.85l11.3,1.72-.45-8c-4.42,1.32-5.52-3.23-8.18-6.86Z" style="fill:#ffc2bc"></path><path d="M140.9,182.52c1,3.14,3.16,8.18,5.95,10.52-2.29.82-6.26,1-7.76-.47a26.9,26.9,0,0,1-2.3-3.58Z" style="isolation:isolate;opacity:0.2"></path><path d="M120.49,186.49c2.35,5.66,9.38,9.41,15.29,7.79,3.28-.9,4.36-1.37,6-4.35a17,17,0,0,0,1.89-9.89,11,11,0,0,0-2.64-6.59c-2-2-11.57-7.46-19.56,1.57C118.44,178.48,119.17,183.3,120.49,186.49Z" style="fill:#263238"></path><path d="M127.54,188.64c5.51,3.92,7.75,5.7,12.59,5.24,7.27-.71,10.89-8.33,6.68-13.82-3.8-4.95-12.16-10.53-18.41-7.09a9.23,9.23,0,0,0-.86,15.67Z" style="fill:#ffc2bc"></path><path d="M135.48,172.27c.28-1.38,1.13-3.29.87-4.67a3.19,3.19,0,0,0-2.6-2.62,3.67,3.67,0,0,1-.22,1.9,3.17,3.17,0,0,0-1.9-2.58,3.87,3.87,0,0,0-3.52.61,2.18,2.18,0,0,1,.47,2.64,3.84,3.84,0,0,0-2.63-1.64,5.45,5.45,0,0,0-3.51,1.25,2.72,2.72,0,0,1,1.61,2.55,2.07,2.07,0,0,0-1.78-1,2.58,2.58,0,0,0-1.83,1.38c2.63,1.8,2.68,5.84,5,8a10.17,10.17,0,0,1,4.35-4.75A8.1,8.1,0,0,1,135.48,172.27Z" style="fill:#263238"></path><path d="M124.25,175.44c2.43,4.71,5.05,12.16,9.35,15.26a3.1,3.1,0,0,0-4.2,2.07,13.78,13.78,0,0,1-7.23-8.29C121.63,182.55,123.4,177.25,124.25,175.44Z" style="fill:#263238"></path><path d="M131,194.59a4.94,4.94,0,0,0,3.69-.86c1.39-1,.75-2.59-.78-3.21-1.37-.56-3.73-.67-4.62.76a2.23,2.23,0,0,0,.84,3A2.28,2.28,0,0,0,131,194.59Z" style="fill:#ffc2bc"></path><path d="M135.25,182.27c.43.35.95.39,1.18.12s.07-.78-.36-1.13-.95-.39-1.18-.12S134.83,181.93,135.25,182.27Z" style="fill:#263238"></path><path d="M143.09,184.61c.43.34.95.39,1.18.12s.06-.79-.36-1.13-.95-.39-1.18-.12S142.67,184.26,143.09,184.61Z" style="fill:#263238"></path><path d="M139.36,177.05c.43.34.95.39,1.19.12s.06-.79-.37-1.14-1-.39-1.18-.12S138.91,176.71,139.36,177.05Z" style="fill:#263238"></path><path d="M138.92,176.06l.55-1.24S139.82,175.94,138.92,176.06Z" style="fill:#263238"></path><path d="M138.89,178.89a14.76,14.76,0,0,0,4,.57,2.34,2.34,0,0,1-.9,1.78Z" style="fill:#ec837e"></path><path d="M132.27,181.45a.22.22,0,0,0,.06-.21,2.21,2.21,0,0,1,.43-2,.26.26,0,0,0,0-.34.21.21,0,0,0-.31,0h0a2.68,2.68,0,0,0-.54,2.42.26.26,0,0,0,.26.22A.22.22,0,0,0,132.27,181.45Z" style="fill:#263238"></path><path d="M138.39,173.28a.28.28,0,0,0,.13-.23.25.25,0,0,0-.27-.26h0a3.1,3.1,0,0,0-2.58,1.3.26.26,0,0,0,.06.36h0a.27.27,0,0,0,.37-.08h0a2.62,2.62,0,0,1,2.13-1.05A.23.23,0,0,0,138.39,173.28Z" style="fill:#263238"></path><path d="M134.81,181.28l.55-1.24S135.73,181.19,134.81,181.28Z" style="fill:#263238"></path></g><path d="M138.38,217.11c.6-.3,5.43,6.25,6.43,7.72s-1-9.88-2.54-11.2C139.77,211.5,138.38,217.11,138.38,217.11Z" style="opacity:0.2"></path><path d="M140.71,202l-2.3,1.68c.16-.13,16.12,2.4,16.12,2.4l-.77-12-2.42,1.24.73,8Z" style="opacity:0.2"></path><polygon points="275.45 273.28 279.17 275.93 287.45 266.77 284.41 263.12 275.45 273.28" style="fill:#407BFF"></polygon><path d="M128.94,261.81l7.78,4.88-6.07,5a42.83,42.83,0,0,1-4.57-6.7Z" style="fill:#ffc2bc"></path><path d="M138.1,272.57l-1.57,1a2.12,2.12,0,0,1-2.16.09l-3.72-2,6.07-5,2,3A2.1,2.1,0,0,1,138.1,272.57Z" style="fill:#ffc2bc"></path><path d="M126.11,264.65s-4.44-8.78-5.58-25.92c-.46-6.85,3.4-15.46,9-26.15s14.25-2.79,11.88,2.72-11.63,20.14-11.94,22.51c-1.13,8.64.77,24.95.77,24.95C127,266.74,126.11,264.65,126.11,264.65Z" style="fill:#ffc2bc"></path><polygon points="203.26 165.68 207 162.88 210.91 166.83 208.65 171.66 203.26 165.68" style="fill:#ffc2bc"></polygon><path d="M146.83,143.21l-2.14,2.48a5.5,5.5,0,0,0-1.31,4l.11,1.49.45,0-.11-1.48A5,5,0,0,1,145,146l2.13-2.49Z" style="fill:#407BFF"></path><g style="opacity:0.30000000000000004"><path d="M146.83,143.21l-2.14,2.48a5.5,5.5,0,0,0-1.31,4l.11,1.49.45,0-.11-1.48A5,5,0,0,1,145,146l2.13-2.49Z" style="fill:#fff"></path></g><path d="M137.51,154.62a3.51,3.51,0,0,0,4.49-5.4.57.57,0,0,1,.47-.54,3.62,3.62,0,1,0-.37-.36,1,1,0,0,0-.5.59,3.51,3.51,0,0,0-4.43,5.41m0,0L135,156.81a5.49,5.49,0,0,0-1.32,4l.12,1.49.45,0-.12-1.49a5.07,5.07,0,0,1,1.21-3.69l2.13-2.48Zm5.49-6.06a3.07,3.07,0,1,1,4.34-.33A3.08,3.08,0,0,1,142.66,148.26Zm-5,5.88a3.07,3.07,0,1,1,4.33-.33A3.06,3.06,0,0,1,137.62,154.14Z" style="fill:#407BFF"></path></g><g id="freepik--Desk--inject-154"><polygon points="389.82 359.42 394.86 360.45 406.06 247.54 398.23 245.94 389.82 359.42" style="fill:#407BFF"></polygon><polygon points="389.82 359.42 394.86 360.45 406.06 247.54 398.23 245.94 389.82 359.42" style="fill:#fff;opacity:0.7000000000000001"></polygon><polygon points="334.14 348.06 339.19 349.09 359.94 238.13 352.1 236.53 334.14 348.06" style="fill:#407BFF"></polygon><polygon points="334.14 348.06 339.19 349.09 359.94 238.13 352.1 236.53 334.14 348.06" style="fill:#fff;opacity:0.4"></polygon><polygon points="321.95 236.31 401.64 252.57 402.28 245.18 323.66 229.13 321.95 236.31" style="fill:#407BFF"></polygon><polygon points="321.95 236.31 401.64 252.57 402.28 245.18 323.66 229.13 321.95 236.31" style="fill:#fff;opacity:0.7000000000000001"></polygon><polygon points="238.97 328.64 244.01 329.67 281.1 222.04 273.25 220.44 238.97 328.64" style="fill:#407BFF"></polygon><polygon points="238.97 328.64 244.01 329.67 281.1 222.04 273.25 220.44 238.97 328.64" style="fill:#fff;opacity:0.4"></polygon><polygon points="275.22 226.77 321.95 236.31 323.66 229.13 277.55 219.72 275.22 226.77" style="fill:#407BFF"></polygon><polygon points="275.22 226.77 321.95 236.31 323.66 229.13 277.55 219.72 275.22 226.77" style="fill:#fff;opacity:0.6000000000000001"></polygon><path d="M271.68,220.12l59.77,12.2a3.07,3.07,0,0,0,3.78-2l.18-.81a3,3,0,0,0-2.61-3.25l-59.1-12.06a3.52,3.52,0,0,0-4.06,1.89l-.27.79C268.87,218.31,269.91,219.76,271.68,220.12Z" style="fill:#263238"></path><path d="M271.68,220.12l59.77,12.2a3.07,3.07,0,0,0,3.78-2l.18-.81a3,3,0,0,0-2.61-3.25l-59.1-12.06a3.52,3.52,0,0,0-4.06,1.89l-.27.79C268.87,218.31,269.91,219.76,271.68,220.12Z" style="fill:#fff;opacity:0.30000000000000004"></path><path d="M327.57,231.53l81.78,16.69c1.77.36,3.29-.57,3.39-2.07l.06-.84a3.53,3.53,0,0,0-3-3.33L329,225.48a3.12,3.12,0,0,0-3.79,2l-.19.81C324.64,229.69,325.8,231.16,327.57,231.53Z" style="fill:#263238"></path><path d="M327.57,231.53l81.78,16.69c1.77.36,3.29-.57,3.39-2.07l.06-.84a3.53,3.53,0,0,0-3-3.33L329,225.48a3.12,3.12,0,0,0-3.79,2l-.19.81C324.64,229.69,325.8,231.16,327.57,231.53Z" style="fill:#fff;opacity:0.4"></path><polygon points="294.64 340 299.69 341.03 327.22 231.45 319.38 229.85 294.64 340" style="fill:#407BFF"></polygon><polygon points="294.64 340 299.69 341.03 327.22 231.45 319.38 229.85 294.64 340" style="fill:#fff;opacity:0.7000000000000001"></polygon></g></svg>