<svg width="56" height="56" viewBox="0 0 56 56" fill="none" xmlns="http://www.w3.org/2000/svg">
<rect width="56" height="56" fill="#D0DEFE"/>
<path d="M29.155 30.1863V29.6631C29.155 29.0252 28.638 28.5081 28.0005 28.5081C27.3625 28.5081 26.8455 29.0252 26.8455 29.6631V30.1863C26.8455 30.8242 27.3625 31.3413 28.0005 31.3413C28.6375 31.3413 29.155 30.8242 29.155 30.1863Z" fill="#437BFC"/>
<path d="M29.9472 30.8252C29.6912 31.6628 28.9201 32.2778 28.0005 32.2778C27.0803 32.2778 26.3092 31.6628 26.0533 30.8252H18.0991C17.597 30.8252 17.1226 30.7084 16.697 30.5059V35.7873C16.697 36.8186 17.5408 37.6623 18.572 37.6623H37.428C38.4592 37.6623 39.303 36.8186 39.303 35.7873V30.5064C38.8769 30.7089 38.403 30.8256 37.9009 30.8256H29.9472V30.8252Z" fill="#437BFC"/>
<path d="M37.8227 21.3414H33.3222C33.0503 19.6417 31.578 18.3377 29.8028 18.3377H26.1967C24.4216 18.3377 22.9497 19.6417 22.6773 21.3414H18.1773C17.103 21.3414 16.2241 22.1852 16.2241 23.2164V27.5444C16.2241 28.5799 17.0636 29.4194 18.0991 29.4194H25.9647C25.9914 28.8799 26.223 28.3952 26.5891 28.0445C26.6003 28.0338 26.6134 28.0253 26.6252 28.015C26.7062 27.9405 26.7906 27.8702 26.883 27.8092C26.9158 27.7872 26.9533 27.7722 26.9875 27.7525C27.0634 27.7089 27.1384 27.6634 27.2205 27.6297C27.2847 27.603 27.3541 27.5875 27.4216 27.5674C27.4797 27.55 27.535 27.527 27.5955 27.5149C27.7262 27.4881 27.8617 27.4741 28 27.4741C28.1387 27.4741 28.2737 27.4886 28.4045 27.5149C28.4645 27.527 28.5198 27.55 28.578 27.5674C28.6455 27.5875 28.7148 27.603 28.7791 27.6302C28.8606 27.6639 28.9352 27.7089 29.0111 27.7525C29.0458 27.7727 29.0833 27.7877 29.1166 27.8097C29.2089 27.8702 29.2928 27.9405 29.3739 28.015C29.3856 28.0258 29.3992 28.0342 29.4105 28.0455C29.777 28.3961 30.0081 28.8808 30.0348 29.4203H37.9005C38.9359 29.4203 39.7755 28.5808 39.7755 27.5453V23.2174C39.7759 22.1852 38.897 21.3414 37.8227 21.3414ZM24.4825 21.3414C24.7216 20.6191 25.3952 20.0927 26.1967 20.0927H29.8028C30.6044 20.0927 31.278 20.6191 31.517 21.3414H24.4825Z" fill="#437BFC"/>
</svg>
